<svg width="22" height="22" viewBox="0 0 22 22" fill="none" xmlns="http://www.w3.org/2000/svg">
<g clip-path="url(#clip0_167_615)">
<path d="M15.6666 10.3333H11.6666V6.33332C11.6666 6.15651 11.5964 5.98694 11.4714 5.86192C11.3463 5.73689 11.1768 5.66666 11 5.66666C10.8231 5.66666 10.6536 5.73689 10.5286 5.86192C10.4035 5.98694 10.3333 6.15651 10.3333 6.33332V10.3333H6.33329C6.15648 10.3333 5.98691 10.4036 5.86189 10.5286C5.73686 10.6536 5.66663 10.8232 5.66663 11C5.66663 11.1768 5.73686 11.3464 5.86189 11.4714C5.98691 11.5964 6.15648 11.6667 6.33329 11.6667H10.3333V15.6667C10.3333 15.8435 10.4035 16.013 10.5286 16.1381C10.6536 16.2631 10.8231 16.3333 11 16.3333C11.1768 16.3333 11.3463 16.2631 11.4714 16.1381C11.5964 16.013 11.6666 15.8435 11.6666 15.6667V11.6667H15.6666C15.8434 11.6667 16.013 11.5964 16.138 11.4714C16.2631 11.3464 16.3333 11.1768 16.3333 11C16.3333 10.8232 16.2631 10.6536 16.138 10.5286C16.013 10.4036 15.8434 10.3333 15.6666 10.3333Z" fill="#496E66"/>
</g>
<circle cx="11" cy="11" r="10" stroke="#496E66" stroke-width="2"/>
<defs>
<clipPath id="clip0_167_615">
<rect width="16" height="16" fill="white" transform="translate(3 3)"/>
</clipPath>
</defs>
</svg>
