<svg width="12" height="12" viewBox="0 0 12 12" fill="none" xmlns="http://www.w3.org/2000/svg">
<path d="M7 8.5C7 8.35 7.05 8.25 7.15 8.15L9.65 5.65C9.85 5.45 10.15 5.45 10.35 5.65C10.55 5.85 10.55 6.15 10.35 6.35L7.85 8.85C7.65 9.05 7.35 9.05 7.15 8.85C7.05 8.75 7 8.65 7 8.5Z" fill="white"/>
<path d="M7 3.5C7 3.35 7.05 3.25 7.15 3.15C7.35 2.95 7.65 2.95 7.85 3.15L10.35 5.65C10.55 5.85 10.55 6.15 10.35 6.35C10.15 6.55 9.85 6.55 9.65 6.35L7.15 3.85C7.05 3.75 7 3.65 7 3.5Z" fill="white"/>
<path d="M1.5 6C1.5 5.7 1.7 5.5 2 5.5L10 5.5C10.3 5.5 10.5 5.7 10.5 6C10.5 6.3 10.3 6.5 10 6.5L2 6.5C1.7 6.5 1.5 6.3 1.5 6Z" fill="white"/>
</svg>
