<svg width="218" height="215" viewBox="0 0 218 215" fill="none" xmlns="http://www.w3.org/2000/svg">
<path d="M206.613 246.021C264.296 247.043 295.27 219.703 278.136 169.701C261.001 119.699 195.756 47.0361 138.073 46.0137C80.3906 44.9913 30.2695 115.61 47.4043 165.612C64.5391 215.613 148.93 244.999 206.613 246.021C264.296 247.043 295.27 219.703 278.136 169.701L206.613 246.021Z" fill="#496E66"/>
<path d="M251.961 148.74C283.29 200.85 274.659 243.529 219.991 254.238C165.324 264.948 64.6204 243.689 33.2905 191.579C1.96056 139.469 40.004 56.5082 94.6715 45.7985C149.339 35.0887 220.631 96.6297 251.961 148.74ZM251.961 148.74C283.29 200.85 274.659 243.529 219.991 254.238" stroke="#A0D195" stroke-width="8.1202"/>
</svg>
