<svg width="342" height="120" viewBox="0 0 342 120" fill="none" xmlns="http://www.w3.org/2000/svg">
<g opacity="0.4" clip-path="url(#clip0_40_1493)">
<g opacity="0.5">
<path d="M-33.5063 106.45C-58.5352 75.2849 -85.372 8.04682 -13.2416 -12.148C58.8888 -32.3428 230.294 -18.7087 312.72 9.51457C395.146 37.7378 425.283 96.6718 382.404 123.324C339.524 149.975 193.545 140.959 106.897 137.443C20.2494 133.928 -8.47736 137.615 -33.5063 106.45ZM-33.5063 106.45C-58.5352 75.2849 -85.372 8.04682 -13.2416 -12.148" stroke="url(#paint0_linear_40_1493)" stroke-opacity="0.5" stroke-width="0.5"/>
<path d="M-27.8257 105.16C-52.1593 74.8604 -78.2507 9.48997 -8.12389 -10.1439C62.0029 -29.7778 228.647 -16.5223 308.783 10.917C388.919 38.3562 418.22 95.6531 376.531 121.565C334.843 147.476 192.919 138.71 108.678 135.292C24.4368 131.874 -3.49197 135.459 -27.8257 105.16ZM-27.8257 105.16C-52.1593 74.8604 -78.2507 9.48997 -8.12389 -10.1439" stroke="url(#paint1_linear_40_1493)" stroke-opacity="0.5" stroke-width="0.5"/>
<path d="M-22.1447 103.869C-45.7832 74.4358 -71.129 10.9331 -3.00588 -8.1398C65.1173 -27.2127 227 -14.336 304.846 12.3193C382.693 38.9746 411.156 94.6344 370.659 119.806C330.161 144.977 192.293 136.461 110.459 133.141C28.6245 129.821 1.49369 133.303 -22.1447 103.869ZM-22.1447 103.869C-45.7832 74.4358 -71.129 10.9331 -3.00588 -8.1398" stroke="url(#paint2_linear_40_1493)" stroke-opacity="0.5" stroke-width="0.5"/>
<path d="M-16.4641 102.579C-39.4073 74.0112 -64.0077 12.3763 2.11187 -6.13567C68.2314 -24.6476 225.352 -12.1496 300.91 13.7217C376.467 39.593 404.093 93.6158 364.787 118.047C325.48 142.477 191.666 134.212 112.239 130.99C32.812 127.767 6.47908 131.147 -16.4641 102.579ZM-16.4641 102.579C-39.4073 74.0112 -64.0077 12.3763 2.11187 -6.13567" stroke="url(#paint3_linear_40_1493)" stroke-opacity="0.5" stroke-width="0.5"/>
<path d="M-10.7835 101.289C-33.0315 73.5866 -56.8864 13.8194 7.22953 -4.13159C71.3455 -22.0826 223.705 -9.96328 296.973 15.124C370.241 40.2114 397.029 92.5971 358.914 116.288C320.799 139.978 191.04 131.963 114.02 128.838C36.9993 125.714 11.4644 128.991 -10.7835 101.289ZM-10.7835 101.289C-33.0315 73.5866 -56.8864 13.8194 7.22953 -4.13159" stroke="url(#paint4_linear_40_1493)" stroke-opacity="0.5" stroke-width="0.5"/>
<path d="M-5.10262 99.9984C-26.6553 73.162 -49.7648 15.2625 12.3475 -2.12746C74.4598 -19.5175 222.058 -7.77692 293.036 16.5264C364.014 40.8298 389.966 91.5785 353.042 114.529C316.118 137.479 190.414 129.714 115.8 126.687C41.187 123.66 16.4501 126.835 -5.10262 99.9984ZM-5.10262 99.9984C-26.6553 73.162 -49.7648 15.2625 12.3475 -2.12746" stroke="url(#paint5_linear_40_1493)" stroke-opacity="0.5" stroke-width="0.5"/>
<path d="M0.57802 98.7082C-20.2794 72.7375 -42.6434 16.7057 17.4653 -0.123327C77.5739 -16.9524 220.411 -5.59054 289.1 17.9288C357.788 41.4482 382.903 90.5598 347.17 112.77C311.436 134.979 189.788 127.466 117.581 124.536C45.3744 121.607 21.4355 124.679 0.57802 98.7082ZM0.57802 98.7082C-20.2794 72.7375 -42.6434 16.7057 17.4653 -0.123327" stroke="url(#paint6_linear_40_1493)" stroke-opacity="0.5" stroke-width="0.5"/>
<path d="M6.2589 97.4179C-13.9033 72.3129 -35.5218 18.1488 22.5832 1.88078C80.6883 -14.3873 218.764 -3.4042 285.163 19.3312C351.562 42.0666 375.839 89.5412 341.297 111.011C306.755 132.48 189.161 125.217 119.362 122.385C49.5621 119.553 26.4211 122.523 6.2589 97.4179ZM6.2589 97.4179C-13.9033 72.3129 -35.5218 18.1488 22.5832 1.88078" stroke="url(#paint7_linear_40_1493)" stroke-opacity="0.5" stroke-width="0.5"/>
<path d="M11.9395 96.1276C-7.52741 71.8883 -28.4005 19.592 27.701 3.88489C83.8024 -11.8222 217.117 -1.21783 281.226 20.7336C345.336 42.685 368.776 88.5225 335.425 109.252C302.074 129.981 188.535 122.968 121.142 120.234C53.7495 117.499 31.4065 120.367 11.9395 96.1276ZM11.9395 96.1276C-7.52741 71.8883 -28.4005 19.592 27.701 3.88489" stroke="url(#paint8_linear_40_1493)" stroke-opacity="0.5" stroke-width="0.5"/>
<path d="M17.6201 94.8373C-1.15158 71.4637 -21.2792 21.0351 32.8186 5.88899C86.9165 -9.25714 215.47 0.968491 277.29 22.1359C339.109 43.3034 361.712 87.5038 329.553 107.493C297.393 127.482 187.909 120.719 122.923 118.082C57.9369 115.446 36.3918 118.211 17.6201 94.8373ZM17.6201 94.8373C-1.15158 71.4637 -21.2792 21.0351 32.8186 5.88899" stroke="url(#paint9_linear_40_1493)" stroke-opacity="0.5" stroke-width="0.5"/>
<path d="M23.3011 93.5471C5.2246 71.0391 -14.1575 22.4783 37.9366 7.89311C90.0308 -6.69204 213.823 3.15486 273.353 23.5383C332.883 43.9218 354.649 86.4852 323.68 105.734C292.712 124.982 187.283 118.47 124.704 115.931C62.1246 113.392 41.3775 116.055 23.3011 93.5471ZM23.3011 93.5471C5.2246 71.0391 -14.1575 22.4783 37.9366 7.89311" stroke="url(#paint10_linear_40_1493)" stroke-opacity="0.5" stroke-width="0.5"/>
<path d="M28.9817 92.2568C11.6005 70.6146 -7.0362 23.9214 43.0544 9.89722C93.1449 -4.12697 212.176 5.34121 269.416 24.9407C326.657 44.5402 347.585 85.4665 317.808 103.975C288.03 122.483 186.656 116.221 126.484 113.78C66.312 111.339 46.3629 113.899 28.9817 92.2568ZM28.9817 92.2568C11.6005 70.6146 -7.0362 23.9214 43.0544 9.89722" stroke="url(#paint11_linear_40_1493)" stroke-opacity="0.5" stroke-width="0.5"/>
<path d="M34.6625 90.9665C17.9765 70.19 0.0853296 25.3646 48.1723 11.9013C96.2592 -1.56189 210.529 7.52757 265.48 26.3431C320.43 45.1586 340.522 84.4479 311.936 102.216C283.349 119.984 186.03 113.972 128.265 111.629C70.4996 109.285 51.3484 111.743 34.6625 90.9665ZM34.6625 90.9665C17.9765 70.19 0.0853296 25.3646 48.1723 11.9013" stroke="url(#paint12_linear_40_1493)" stroke-opacity="0.5" stroke-width="0.5"/>
<path d="M40.3432 89.6763C24.3525 69.7654 7.20679 26.8077 53.2901 13.9055C99.3734 1.00321 208.882 9.71393 261.543 27.7454C314.204 45.777 333.459 83.4292 306.063 100.457C278.668 117.484 185.404 111.724 130.046 109.478C74.6872 107.232 56.3339 109.587 40.3432 89.6763ZM40.3432 89.6763C24.3525 69.7654 7.20679 26.8077 53.2901 13.9055" stroke="url(#paint13_linear_40_1493)" stroke-opacity="0.5" stroke-width="0.5"/>
<path d="M46.0239 88.386C30.7285 69.3408 14.3282 28.2509 58.4079 15.9096C102.488 3.56829 207.235 11.9003 257.606 29.1478C307.978 46.3954 326.395 82.4105 300.191 98.6978C273.987 114.985 184.778 109.475 131.826 107.326C78.8746 105.178 61.3194 107.431 46.0239 88.386ZM46.0239 88.386C30.7285 69.3408 14.3282 28.2509 58.4079 15.9096" stroke="url(#paint14_linear_40_1493)" stroke-opacity="0.5" stroke-width="0.5"/>
<path d="M51.7047 87.0957C37.1045 68.9162 21.4497 29.694 63.5257 17.9137C105.602 6.13336 205.588 14.0866 253.67 30.5502C301.752 47.0137 319.332 81.3919 294.319 96.9388C269.306 112.486 184.151 107.226 133.607 105.175C83.0622 103.125 66.3049 105.275 51.7047 87.0957ZM51.7047 87.0957C37.1045 68.9162 21.4497 29.694 63.5257 17.9137" stroke="url(#paint15_linear_40_1493)" stroke-opacity="0.5" stroke-width="0.5"/>
<path d="M57.3853 85.8054C43.4804 68.4916 28.5711 31.1371 68.6435 19.9178C108.716 8.69842 203.941 16.273 249.733 31.9525C295.525 47.6321 312.268 80.3732 288.446 95.1798C264.624 109.986 183.525 104.977 135.387 103.024C87.2496 101.071 71.2903 103.119 57.3853 85.8054ZM57.3853 85.8054C43.4804 68.4916 28.5711 31.1371 68.6435 19.9178" stroke="url(#paint16_linear_40_1493)" stroke-opacity="0.5" stroke-width="0.5"/>
<path d="M63.0661 84.5152C49.8564 68.0671 35.6925 32.5803 73.7614 21.9219C111.83 11.2635 202.294 18.4593 245.796 33.3549C289.299 48.2505 305.205 79.3545 282.574 93.4208C259.943 107.487 182.899 102.728 137.168 100.873C91.4372 99.0175 76.2758 100.963 63.0661 84.5152ZM63.0661 84.5152C49.8564 68.0671 35.6925 32.5803 73.7614 21.9219" stroke="url(#paint17_linear_40_1493)" stroke-opacity="0.5" stroke-width="0.5"/>
<path d="M68.7468 83.2249C56.2324 67.6425 42.814 34.0234 78.8792 23.926C114.944 13.8286 200.647 20.6457 241.86 34.7573C283.073 48.8689 298.142 78.3359 276.702 91.6618C255.262 104.988 182.273 100.479 138.949 98.7216C95.6247 96.964 81.2613 98.8073 68.7468 83.2249ZM68.7468 83.2249C56.2324 67.6425 42.814 34.0234 78.8792 23.926" stroke="url(#paint18_linear_40_1493)" stroke-opacity="0.5" stroke-width="0.5"/>
<path d="M74.4276 81.9347C62.6084 67.2179 49.9355 35.4666 83.9971 25.9301C118.059 16.3937 199 22.832 237.923 36.1597C276.847 49.4873 291.078 77.3173 270.829 89.9028C250.581 102.488 181.646 98.2305 140.729 96.5705C99.8123 94.9104 86.2468 96.6514 74.4276 81.9347ZM74.4276 81.9347C62.6084 67.2179 49.9355 35.4666 83.9971 25.9301" stroke="url(#paint19_linear_40_1493)" stroke-opacity="0.5" stroke-width="0.5"/>
<path d="M80.1083 80.6444C68.9844 66.7933 57.0569 36.9097 89.1149 27.9342C121.173 18.9587 197.353 25.0184 233.987 37.562C270.62 50.1057 284.015 76.2986 264.957 88.1438C245.9 99.9891 181.02 95.9816 142.51 94.4192C104 92.8568 91.2323 94.4954 80.1083 80.6444ZM80.1083 80.6444C68.9844 66.7933 57.0569 36.9097 89.1149 27.9342" stroke="url(#paint20_linear_40_1493)" stroke-opacity="0.5" stroke-width="0.5"/>
<path d="M85.789 79.3541C75.3603 66.3687 64.1783 38.3528 94.2326 29.9383C124.287 21.5238 195.706 27.2047 230.05 38.9644C264.394 50.7241 276.951 75.2799 259.085 86.3848C241.218 97.4897 180.394 93.7328 144.29 92.268C108.187 90.8033 96.2177 92.3394 85.789 79.3541ZM85.789 79.3541C75.3603 66.3687 64.1783 38.3528 94.2326 29.9383" stroke="url(#paint21_linear_40_1493)" stroke-opacity="0.5" stroke-width="0.5"/>
<path d="M91.4698 78.0638C81.7363 65.9442 71.2998 39.796 99.3505 31.9425C127.401 24.0889 194.059 29.3911 226.113 40.3668C258.168 51.3425 269.888 74.2613 253.212 84.6259C236.537 94.9904 179.768 91.4839 146.071 90.1168C112.375 88.7498 101.203 90.1835 91.4698 78.0638ZM91.4698 78.0638C81.7363 65.9442 71.2998 39.796 99.3505 31.9425" stroke="url(#paint22_linear_40_1493)" stroke-opacity="0.5" stroke-width="0.5"/>
<path d="M97.1505 76.7736C88.1123 65.5196 78.4212 41.2392 104.468 33.9466C130.515 26.654 192.412 31.5775 222.177 41.7692C251.942 51.9609 262.824 73.2426 247.34 82.8669C231.856 92.4911 179.141 89.2351 147.852 87.9656C116.562 86.6962 106.189 88.0275 97.1505 76.7736ZM97.1505 76.7736C88.1123 65.5196 78.4212 41.2392 104.468 33.9466" stroke="url(#paint23_linear_40_1493)" stroke-opacity="0.5" stroke-width="0.5"/>
<path d="M102.831 75.4833C94.4883 65.095 85.5427 42.6823 109.586 35.9507C133.63 29.2191 190.765 33.7638 218.24 43.1715C245.715 52.5793 255.761 72.2239 241.468 81.1079C227.175 89.9918 178.515 86.9862 149.632 85.8144C120.75 84.6426 111.174 85.8716 102.831 75.4833ZM102.831 75.4833C94.4883 65.095 85.5427 42.6823 109.586 35.9507" stroke="url(#paint24_linear_40_1493)" stroke-opacity="0.5" stroke-width="0.5"/>
<path d="M108.512 74.193C100.864 64.6704 92.6642 44.1254 114.704 37.9548C136.744 31.7841 189.118 35.9501 214.303 44.5739C239.489 53.1977 248.698 71.2053 235.596 79.3489C222.493 87.4925 177.889 84.7374 151.413 83.6632C124.937 82.5891 116.16 83.7156 108.512 74.193ZM108.512 74.193C100.864 64.6704 92.6642 44.1254 114.704 37.9548" stroke="url(#paint25_linear_40_1493)" stroke-opacity="0.5" stroke-width="0.5"/>
<path d="M114.193 72.9027C107.24 64.2458 99.7855 45.5686 119.822 39.9589C139.858 34.3492 187.47 38.1365 210.367 45.9763C233.263 53.8161 241.634 70.1866 229.723 77.5899C217.812 84.9932 177.263 82.4885 153.194 81.512C129.125 80.5355 121.145 81.5596 114.193 72.9027ZM114.193 72.9027C107.24 64.2458 99.7855 45.5686 119.822 39.9589" stroke="url(#paint26_linear_40_1493)" stroke-opacity="0.5" stroke-width="0.5"/>
<path d="M119.873 71.6125C113.616 63.8213 106.907 47.0117 124.94 41.963C142.972 36.9143 185.823 40.3229 206.43 47.3787C227.036 54.4345 234.571 69.168 223.851 75.8309C213.131 82.4939 176.636 80.2397 154.974 79.3608C133.312 78.482 126.131 79.4037 119.873 71.6125ZM119.873 71.6125C113.616 63.8213 106.907 47.0117 124.94 41.963" stroke="url(#paint27_linear_40_1493)" stroke-opacity="0.5" stroke-width="0.5"/>
<path d="M125.554 70.3222C119.992 63.3967 114.028 48.4549 130.057 43.9671C146.086 39.4794 184.176 42.5092 202.493 48.781C220.81 55.0529 227.507 68.1493 217.979 74.0719C208.45 79.9945 176.01 77.9908 156.755 77.2096C137.5 76.4284 131.116 77.2477 125.554 70.3222ZM125.554 70.3222C119.992 63.3967 114.028 48.4549 130.057 43.9671" stroke="url(#paint28_linear_40_1493)" stroke-opacity="0.5" stroke-width="0.5"/>
<path d="M131.235 69.0319C126.368 62.9721 121.15 49.898 135.175 45.9712C149.201 42.0445 182.529 44.6956 198.557 50.1834C214.584 55.6713 220.444 67.1306 212.106 72.3129C203.769 77.4952 175.384 75.742 158.536 75.0584C141.687 74.3749 136.102 75.0918 131.235 69.0319ZM131.235 69.0319C126.368 62.9721 121.15 49.898 135.175 45.9712" stroke="url(#paint29_linear_40_1493)" stroke-opacity="0.5" stroke-width="0.5"/>
<path d="M136.916 67.7416C132.744 62.5475 128.271 51.3411 140.293 47.9753C152.315 44.6095 180.882 46.8819 194.62 51.5858C208.358 56.2897 213.381 66.112 206.234 70.5539C199.087 74.9959 174.758 73.4931 160.316 72.9072C145.875 72.3213 141.087 72.9358 136.916 67.7416ZM136.916 67.7416C132.744 62.5475 128.271 51.3411 140.293 47.9753" stroke="url(#paint30_linear_40_1493)" stroke-opacity="0.5" stroke-width="0.5"/>
<path d="M142.596 66.4514C139.12 62.1229 135.393 52.7843 145.411 49.9795C155.429 47.1746 179.235 49.0683 190.683 52.9881C202.131 56.908 206.317 65.0933 200.362 68.795C194.406 72.4966 174.131 71.2443 162.097 70.756C150.062 70.2678 146.073 70.7798 142.596 66.4514ZM142.596 66.4514C139.12 62.1229 135.393 52.7843 145.411 49.9795" stroke="url(#paint31_linear_40_1493)" stroke-opacity="0.5" stroke-width="0.5"/>
<path d="M148.277 65.1611C145.496 61.6983 142.514 54.2274 150.529 51.9836C158.543 49.7397 177.588 51.2546 186.747 54.3905C195.905 57.5264 199.254 64.0747 194.489 67.036C189.725 69.9973 173.505 68.9954 163.877 68.6048C154.25 68.2142 151.058 68.6239 148.277 65.1611ZM148.277 65.1611C145.496 61.6983 142.514 54.2274 150.529 51.9836" stroke="url(#paint32_linear_40_1493)" stroke-opacity="0.5" stroke-width="0.5"/>
<path d="M153.958 63.8708C151.872 61.2738 149.636 55.6706 155.647 53.9877C161.657 52.3048 175.941 53.441 182.81 55.7929C189.679 58.1448 192.19 63.056 188.617 65.277C185.044 67.498 172.879 66.7466 165.658 66.4536C158.437 66.1607 156.044 66.4679 153.958 63.8708ZM153.958 63.8708C151.872 61.2738 149.636 55.6706 155.647 53.9877" stroke="url(#paint33_linear_40_1493)" stroke-opacity="0.5" stroke-width="0.5"/>
<path d="M159.639 62.5806C158.248 60.8492 156.757 57.1137 160.764 55.9918C164.772 54.8699 174.294 55.6273 178.873 57.1953C183.453 58.7632 185.127 62.0373 182.745 63.518C180.363 64.9987 172.253 64.4977 167.439 64.3024C162.625 64.1071 161.029 64.3119 159.639 62.5806ZM159.639 62.5806C158.248 60.8492 156.757 57.1137 160.764 55.9918" stroke="url(#paint34_linear_40_1493)" stroke-opacity="0.5" stroke-width="0.5"/>
<path d="M165.319 61.2903C164.624 60.4246 163.879 58.5569 165.882 57.9959C167.886 57.4349 172.647 57.8137 174.937 58.5977C177.226 59.3816 178.064 61.0187 176.872 61.759C175.681 62.4993 171.626 62.2489 169.219 62.1512C166.813 62.0536 166.015 62.156 165.319 61.2903ZM165.319 61.2903C164.624 60.4246 163.879 58.5569 165.882 57.9959" stroke="url(#paint35_linear_40_1493)" stroke-opacity="0.5" stroke-width="0.5"/>
</g>
</g>
<defs>
<linearGradient id="paint0_linear_40_1493" x1="171" y1="141.78" x2="171" y2="-21.7804" gradientUnits="userSpaceOnUse">
<stop offset="0.45" stop-color="#009F7D"/>
<stop offset="1" stop-color="#2FFF00"/>
</linearGradient>
<linearGradient id="paint1_linear_40_1493" x1="171" y1="139.509" x2="171" y2="-19.5087" gradientUnits="userSpaceOnUse">
<stop offset="0.45" stop-color="#009F7D"/>
<stop offset="1" stop-color="#2FFF00"/>
</linearGradient>
<linearGradient id="paint2_linear_40_1493" x1="171" y1="137.237" x2="171" y2="-17.2371" gradientUnits="userSpaceOnUse">
<stop offset="0.45" stop-color="#009F7D"/>
<stop offset="1" stop-color="#2FFF00"/>
</linearGradient>
<linearGradient id="paint3_linear_40_1493" x1="171" y1="134.965" x2="171" y2="-14.9654" gradientUnits="userSpaceOnUse">
<stop offset="0.45" stop-color="#009F7D"/>
<stop offset="1" stop-color="#2FFF00"/>
</linearGradient>
<linearGradient id="paint4_linear_40_1493" x1="171" y1="132.694" x2="171" y2="-12.6937" gradientUnits="userSpaceOnUse">
<stop offset="0.45" stop-color="#009F7D"/>
<stop offset="1" stop-color="#2FFF00"/>
</linearGradient>
<linearGradient id="paint5_linear_40_1493" x1="171" y1="130.422" x2="171" y2="-10.422" gradientUnits="userSpaceOnUse">
<stop offset="0.45" stop-color="#009F7D"/>
<stop offset="1" stop-color="#2FFF00"/>
</linearGradient>
<linearGradient id="paint6_linear_40_1493" x1="171" y1="128.15" x2="171" y2="-8.15033" gradientUnits="userSpaceOnUse">
<stop offset="0.45" stop-color="#009F7D"/>
<stop offset="1" stop-color="#2FFF00"/>
</linearGradient>
<linearGradient id="paint7_linear_40_1493" x1="171" y1="125.879" x2="171" y2="-5.87866" gradientUnits="userSpaceOnUse">
<stop offset="0.45" stop-color="#009F7D"/>
<stop offset="1" stop-color="#2FFF00"/>
</linearGradient>
<linearGradient id="paint8_linear_40_1493" x1="171" y1="123.607" x2="171" y2="-3.60698" gradientUnits="userSpaceOnUse">
<stop offset="0.45" stop-color="#009F7D"/>
<stop offset="1" stop-color="#2FFF00"/>
</linearGradient>
<linearGradient id="paint9_linear_40_1493" x1="171" y1="121.335" x2="171" y2="-1.33532" gradientUnits="userSpaceOnUse">
<stop offset="0.45" stop-color="#009F7D"/>
<stop offset="1" stop-color="#2FFF00"/>
</linearGradient>
<linearGradient id="paint10_linear_40_1493" x1="171" y1="119.064" x2="171" y2="0.936363" gradientUnits="userSpaceOnUse">
<stop offset="0.45" stop-color="#009F7D"/>
<stop offset="1" stop-color="#2FFF00"/>
</linearGradient>
<linearGradient id="paint11_linear_40_1493" x1="171" y1="116.792" x2="171" y2="3.20805" gradientUnits="userSpaceOnUse">
<stop offset="0.45" stop-color="#009F7D"/>
<stop offset="1" stop-color="#2FFF00"/>
</linearGradient>
<linearGradient id="paint12_linear_40_1493" x1="171" y1="114.52" x2="171" y2="5.47973" gradientUnits="userSpaceOnUse">
<stop offset="0.45" stop-color="#009F7D"/>
<stop offset="1" stop-color="#2FFF00"/>
</linearGradient>
<linearGradient id="paint13_linear_40_1493" x1="171" y1="112.249" x2="171" y2="7.75142" gradientUnits="userSpaceOnUse">
<stop offset="0.45" stop-color="#009F7D"/>
<stop offset="1" stop-color="#2FFF00"/>
</linearGradient>
<linearGradient id="paint14_linear_40_1493" x1="171" y1="109.977" x2="171" y2="10.0231" gradientUnits="userSpaceOnUse">
<stop offset="0.45" stop-color="#009F7D"/>
<stop offset="1" stop-color="#2FFF00"/>
</linearGradient>
<linearGradient id="paint15_linear_40_1493" x1="171" y1="107.705" x2="171" y2="12.2948" gradientUnits="userSpaceOnUse">
<stop offset="0.45" stop-color="#009F7D"/>
<stop offset="1" stop-color="#2FFF00"/>
</linearGradient>
<linearGradient id="paint16_linear_40_1493" x1="171" y1="105.434" x2="171" y2="14.5664" gradientUnits="userSpaceOnUse">
<stop offset="0.45" stop-color="#009F7D"/>
<stop offset="1" stop-color="#2FFF00"/>
</linearGradient>
<linearGradient id="paint17_linear_40_1493" x1="171" y1="103.162" x2="171" y2="16.8381" gradientUnits="userSpaceOnUse">
<stop offset="0.45" stop-color="#009F7D"/>
<stop offset="1" stop-color="#2FFF00"/>
</linearGradient>
<linearGradient id="paint18_linear_40_1493" x1="171" y1="100.89" x2="171" y2="19.1098" gradientUnits="userSpaceOnUse">
<stop offset="0.45" stop-color="#009F7D"/>
<stop offset="1" stop-color="#2FFF00"/>
</linearGradient>
<linearGradient id="paint19_linear_40_1493" x1="171" y1="98.6186" x2="171" y2="21.3815" gradientUnits="userSpaceOnUse">
<stop offset="0.45" stop-color="#009F7D"/>
<stop offset="1" stop-color="#2FFF00"/>
</linearGradient>
<linearGradient id="paint20_linear_40_1493" x1="171" y1="96.3469" x2="171" y2="23.6531" gradientUnits="userSpaceOnUse">
<stop offset="0.45" stop-color="#009F7D"/>
<stop offset="1" stop-color="#2FFF00"/>
</linearGradient>
<linearGradient id="paint21_linear_40_1493" x1="171" y1="94.0752" x2="171" y2="25.9248" gradientUnits="userSpaceOnUse">
<stop offset="0.45" stop-color="#009F7D"/>
<stop offset="1" stop-color="#2FFF00"/>
</linearGradient>
<linearGradient id="paint22_linear_40_1493" x1="171" y1="91.8035" x2="171" y2="28.1965" gradientUnits="userSpaceOnUse">
<stop offset="0.45" stop-color="#009F7D"/>
<stop offset="1" stop-color="#2FFF00"/>
</linearGradient>
<linearGradient id="paint23_linear_40_1493" x1="171" y1="89.5319" x2="171" y2="30.4682" gradientUnits="userSpaceOnUse">
<stop offset="0.45" stop-color="#009F7D"/>
<stop offset="1" stop-color="#2FFF00"/>
</linearGradient>
<linearGradient id="paint24_linear_40_1493" x1="171" y1="87.2602" x2="171" y2="32.7399" gradientUnits="userSpaceOnUse">
<stop offset="0.45" stop-color="#009F7D"/>
<stop offset="1" stop-color="#2FFF00"/>
</linearGradient>
<linearGradient id="paint25_linear_40_1493" x1="171" y1="84.9885" x2="171" y2="35.0116" gradientUnits="userSpaceOnUse">
<stop offset="0.45" stop-color="#009F7D"/>
<stop offset="1" stop-color="#2FFF00"/>
</linearGradient>
<linearGradient id="paint26_linear_40_1493" x1="171" y1="82.7168" x2="171" y2="37.2832" gradientUnits="userSpaceOnUse">
<stop offset="0.45" stop-color="#009F7D"/>
<stop offset="1" stop-color="#2FFF00"/>
</linearGradient>
<linearGradient id="paint27_linear_40_1493" x1="171" y1="80.4451" x2="171" y2="39.5549" gradientUnits="userSpaceOnUse">
<stop offset="0.45" stop-color="#009F7D"/>
<stop offset="1" stop-color="#2FFF00"/>
</linearGradient>
<linearGradient id="paint28_linear_40_1493" x1="171" y1="78.1734" x2="171" y2="41.8266" gradientUnits="userSpaceOnUse">
<stop offset="0.45" stop-color="#009F7D"/>
<stop offset="1" stop-color="#2FFF00"/>
</linearGradient>
<linearGradient id="paint29_linear_40_1493" x1="171" y1="75.9018" x2="171" y2="44.0983" gradientUnits="userSpaceOnUse">
<stop offset="0.45" stop-color="#009F7D"/>
<stop offset="1" stop-color="#2FFF00"/>
</linearGradient>
<linearGradient id="paint30_linear_40_1493" x1="171" y1="73.6301" x2="171" y2="46.3699" gradientUnits="userSpaceOnUse">
<stop offset="0.45" stop-color="#009F7D"/>
<stop offset="1" stop-color="#2FFF00"/>
</linearGradient>
<linearGradient id="paint31_linear_40_1493" x1="171" y1="71.3584" x2="171" y2="48.6416" gradientUnits="userSpaceOnUse">
<stop offset="0.45" stop-color="#009F7D"/>
<stop offset="1" stop-color="#2FFF00"/>
</linearGradient>
<linearGradient id="paint32_linear_40_1493" x1="171" y1="69.0867" x2="171" y2="50.9133" gradientUnits="userSpaceOnUse">
<stop offset="0.45" stop-color="#009F7D"/>
<stop offset="1" stop-color="#2FFF00"/>
</linearGradient>
<linearGradient id="paint33_linear_40_1493" x1="171" y1="66.8151" x2="171" y2="53.185" gradientUnits="userSpaceOnUse">
<stop offset="0.45" stop-color="#009F7D"/>
<stop offset="1" stop-color="#2FFF00"/>
</linearGradient>
<linearGradient id="paint34_linear_40_1493" x1="171" y1="64.5434" x2="171" y2="55.4567" gradientUnits="userSpaceOnUse">
<stop offset="0.45" stop-color="#009F7D"/>
<stop offset="1" stop-color="#2FFF00"/>
</linearGradient>
<linearGradient id="paint35_linear_40_1493" x1="171" y1="62.2717" x2="171" y2="57.7283" gradientUnits="userSpaceOnUse">
<stop offset="0.45" stop-color="#009F7D"/>
<stop offset="1" stop-color="#2FFF00"/>
</linearGradient>
<clipPath id="clip0_40_1493">
<rect width="342" height="120" fill="white" transform="translate(342 120) rotate(-180)"/>
</clipPath>
</defs>
</svg>
