<svg width="32" height="32" viewBox="0 0 32 32" fill="none" xmlns="http://www.w3.org/2000/svg">
<g clip-path="url(#clip0_40_1209)">
<path d="M10.0931 19.3514C8.10254 17.322 6.98749 14.5927 6.98749 11.75C6.98749 8.9073 8.10254 6.17802 10.0931 4.14856C11.0731 3.15149 12.2419 2.35956 13.5312 1.81898C14.8205 1.27841 16.2046 0.999994 17.6027 0.999994C19.0008 0.999994 20.3848 1.27841 21.6742 1.81898C22.9635 2.35956 24.1323 3.15149 25.1123 4.14856C25.1579 4.19494 25.2122 4.23179 25.2722 4.25694C25.3322 4.28209 25.3965 4.29504 25.4616 4.29504C25.5266 4.29504 25.591 4.28209 25.6509 4.25694C25.7109 4.23179 25.7653 4.19494 25.8108 4.14856C25.9036 4.05426 25.9555 3.9273 25.9555 3.79504C25.9555 3.66279 25.9036 3.53582 25.8108 3.44153C24.7397 2.35169 23.4622 1.48608 22.0529 0.895197C20.6437 0.304317 19.1308 0 17.6027 0C16.0746 0 14.5618 0.304317 13.1525 0.895197C11.7432 1.48608 10.4658 2.35169 9.39459 3.44153C8.17372 4.67709 7.24014 6.16654 6.66028 7.8039C6.08043 9.44125 5.86855 11.1863 6.03971 12.9148C6.21087 14.6434 6.76088 16.313 7.65059 17.8048C8.5403 19.2966 9.74786 20.5741 11.1873 21.5462C10.9542 21.0299 10.7931 20.484 10.7085 19.9239C10.4978 19.7412 10.2913 19.5521 10.0931 19.3514Z" fill="white"/>
<path d="M20.6213 15.3843C21.364 14.7608 21.8954 13.9224 22.1423 12.9846C22.3892 12.0467 22.3395 11.0554 22.0001 10.147C21.6607 9.23851 21.0482 8.45749 20.2468 7.91129C19.4455 7.36509 18.4946 7.08053 17.5249 7.09675C16.5553 7.11296 15.6144 7.42914 14.8318 8.00183C14.0491 8.57451 13.4631 9.37557 13.1542 10.2949C12.8454 11.2142 12.8289 12.2066 13.107 13.1357C13.3851 14.0647 13.9442 14.8848 14.7074 15.4832V14.0831C14.2768 13.5449 14.0049 12.8974 13.9221 12.2131C13.8394 11.5289 13.949 10.8352 14.2388 10.2099C14.5286 9.58454 14.987 9.0524 15.5625 8.67324C16.138 8.29408 16.8079 8.08292 17.4968 8.06348C18.1857 8.04404 18.8664 8.21709 19.4624 8.56319C20.0584 8.90929 20.5461 9.41473 20.8707 10.0227C21.1953 10.6307 21.3439 11.3172 21.2998 12.005C21.2557 12.6927 21.0208 13.3546 20.6213 13.9162V15.3843ZM12.538 6.62341C12.6307 6.52912 12.6827 6.40215 12.6827 6.2699C12.6827 6.13764 12.6307 6.01068 12.538 5.91638C12.4924 5.87 12.438 5.83315 12.3781 5.808C12.3181 5.78285 12.2537 5.7699 12.1887 5.7699C12.1237 5.7699 12.0593 5.78285 11.9994 5.808C11.9394 5.83315 11.885 5.87 11.8395 5.91638C10.3485 7.43712 9.49651 9.47108 9.45848 11.6004C9.42046 13.7298 10.1993 15.7929 11.635 17.3659C11.6459 17.3564 11.6555 17.3467 11.6667 17.3373C11.9169 17.1272 12.1997 16.9594 12.5039 16.8403C11.1768 15.4688 10.4377 13.6334 10.4441 11.7249C10.4505 9.81652 11.2018 7.98602 12.538 6.62341Z" fill="white"/>
<path d="M22.557 17.048C22.8969 17.1094 23.2204 17.2404 23.5072 17.433C24.9712 15.8645 25.7736 13.7917 25.7473 11.6463C25.7209 9.50093 24.8679 7.44842 23.3658 5.91638C23.3202 5.86999 23.2659 5.83315 23.2059 5.808C23.1459 5.78285 23.0816 5.7699 23.0165 5.7699C22.9515 5.7699 22.8871 5.78285 22.8272 5.808C22.7672 5.83315 22.7129 5.86999 22.6673 5.91638C22.5746 6.01068 22.5226 6.13764 22.5226 6.2699C22.5226 6.40216 22.5746 6.52912 22.6673 6.62341C24.0097 7.99216 24.7617 9.83284 24.7617 11.75C24.7617 13.6672 24.0097 15.5078 22.6673 16.8766C22.6191 16.9255 22.5815 16.9839 22.557 17.048Z" fill="white"/>
<path d="M23.9904 18.8901C23.8443 18.8903 23.6987 18.905 23.5556 18.934C23.4176 18.6523 23.203 18.4153 22.9363 18.2501C22.6697 18.0849 22.3619 17.9982 22.0483 18C21.8932 18.003 21.7391 18.0251 21.5894 18.0658C21.3857 17.7344 21.0967 17.4639 20.7525 17.2826C20.4084 17.1012 20.0219 17.0158 19.6334 17.0352V11.491C19.6363 11.2305 19.5875 10.9721 19.4898 10.7307C19.3922 10.4892 19.2476 10.2696 19.0645 10.0844C18.8813 9.8992 18.6633 9.75219 18.423 9.65185C18.1826 9.55151 17.9248 9.49985 17.6643 9.49985C17.4039 9.49985 17.146 9.55151 16.9057 9.65185C16.6654 9.75219 16.4473 9.8992 16.2642 10.0844C16.081 10.2696 15.9365 10.4892 15.8388 10.7307C15.7412 10.9721 15.6924 11.2305 15.6953 11.491V19.0341C15.5026 18.7697 15.3104 18.5277 15.1215 18.3127C14.7714 17.9163 14.28 17.6726 13.7525 17.6338C13.225 17.5951 12.7033 17.7645 12.2991 18.1056C10.9963 19.2043 12.006 21.0802 12.7434 22.45C12.9305 22.7776 13.098 23.1161 13.245 23.4636C13.462 24.0487 13.6862 24.6536 13.9251 25.193C14.5066 26.8423 14.9856 27.8774 15.4771 28.548C16.0728 29.3604 16.144 30.9386 16.1212 31.4781C16.1183 31.5455 16.1289 31.6127 16.1524 31.6758C16.1759 31.7389 16.2119 31.7967 16.2581 31.8457C16.3039 31.8943 16.3592 31.9331 16.4205 31.9596C16.4818 31.9861 16.5479 31.9999 16.6147 32H24.5181C24.6499 31.9992 24.776 31.9461 24.8686 31.8523C24.9612 31.7585 25.0128 31.6318 25.012 31.5V29.6044C25.209 29.1409 25.9963 27.2095 25.9963 25.9631V23.717C25.9988 23.6886 26 23.6597 26 23.6306V20.8262C25.9894 20.3032 25.772 19.8057 25.3953 19.4428C25.0186 19.0799 24.5134 18.8812 23.9904 18.8901ZM17.1064 31C17.0944 30.6652 17.0633 30.3313 17.0133 30H24.0241V31H17.1064ZM25.0084 23.6919V25.9631C25.0084 26.8127 24.4983 28.2456 24.1917 29H16.8617C16.8359 29.0006 16.8102 29.0032 16.7849 29.0079C16.6706 28.6308 16.497 28.2744 16.2704 27.952C15.8436 27.3698 15.3919 26.3804 14.8489 24.8385C14.8445 24.8258 14.8396 24.8134 14.8341 24.8012C14.6051 24.2863 14.3839 23.6895 14.17 23.1122C14.0078 22.7206 13.8211 22.3395 13.6109 21.9714C13.0374 20.906 12.2519 19.4469 12.9316 18.8738C13.1396 18.6987 13.4076 18.6117 13.6788 18.6311C13.9499 18.6505 14.2028 18.7749 14.3837 18.9778C14.9069 19.5954 15.3684 20.2627 15.7616 20.9702C15.8153 21.0652 15.899 21.1396 15.9996 21.1817C16.1002 21.2239 16.2119 21.2313 16.3172 21.2029C16.4228 21.1737 16.5158 21.1106 16.5819 21.0233C16.648 20.9361 16.6836 20.8295 16.6832 20.72V11.491C16.6801 11.3622 16.7028 11.2341 16.7498 11.1142C16.7969 10.9943 16.8674 10.885 16.9572 10.7927C17.0471 10.7004 17.1544 10.627 17.273 10.5767C17.3916 10.5264 17.5191 10.5004 17.6479 10.5C17.7788 10.4982 17.9088 10.5225 18.0303 10.5715C18.1517 10.6206 18.2621 10.6934 18.355 10.7857C18.4479 10.878 18.5215 10.988 18.5713 11.1091C18.6212 11.2302 18.6464 11.36 18.6454 11.491V17.6403L18.645 17.645V20.615C18.6441 20.6804 18.6562 20.7453 18.6807 20.806C18.7051 20.8667 18.7414 20.9219 18.7873 20.9685C18.8333 21.0151 18.888 21.052 18.9484 21.0773C19.0087 21.1025 19.0735 21.1155 19.1389 21.1155C19.2043 21.1155 19.2691 21.1025 19.3295 21.0773C19.3898 21.052 19.4446 21.0151 19.4905 20.9685C19.5365 20.9219 19.5727 20.8667 19.5971 20.806C19.6216 20.7453 19.6337 20.6804 19.6329 20.615V18.042C19.6649 18.0392 19.6968 18.033 19.7286 18.033C19.9625 18.0282 20.1921 18.0957 20.3863 18.2263C20.5804 18.3568 20.7295 18.544 20.8134 18.7624V21.51C20.8125 21.5754 20.8247 21.6403 20.8491 21.701C20.8735 21.7617 20.9098 21.8169 20.9557 21.8635C21.0017 21.9101 21.0564 21.947 21.1168 21.9723C21.1772 21.9975 21.2419 22.0105 21.3073 22.0105C21.3728 22.0105 21.4375 21.9975 21.4979 21.9723C21.5582 21.947 21.613 21.9101 21.6589 21.8635C21.7049 21.8169 21.7411 21.7617 21.7656 21.701C21.79 21.6403 21.8022 21.5754 21.8013 21.51V19.0434C21.8816 19.019 21.9645 19.0045 22.0483 19C22.28 19 22.5484 19.0744 22.7905 19.6123C22.7904 19.6166 22.7892 19.6207 22.7892 19.625V22.3249C22.7884 22.3904 22.8005 22.4553 22.8249 22.516C22.8494 22.5767 22.8856 22.6319 22.9316 22.6784C22.9775 22.725 23.0323 22.762 23.0926 22.7872C23.153 22.8124 23.2178 22.8254 23.2832 22.8254C23.3486 22.8254 23.4134 22.8124 23.4737 22.7872C23.5341 22.762 23.5888 22.725 23.6348 22.6784C23.6807 22.6319 23.717 22.5767 23.7414 22.516C23.7659 22.4553 23.778 22.3904 23.7771 22.3249V19.9111C23.8475 19.8979 23.9188 19.8908 23.9903 19.8901C24.2497 19.8796 24.5028 19.9721 24.6942 20.1475C24.8856 20.3229 24.9999 20.5668 25.012 20.8262L25.0122 23.6306C25.0097 23.6509 25.0084 23.6714 25.0084 23.6919Z" fill="white"/>
</g>
<defs>
<clipPath id="clip0_40_1209">
<rect width="32" height="32" fill="white"/>
</clipPath>
</defs>
</svg>
